<svg width="33" height="36" viewBox="0 0 33 36" fill="none" xmlns="http://www.w3.org/2000/svg">
<path fill-rule="evenodd" clip-rule="evenodd" d="M4.89091 19.3796C7.31594 19.3796 9.28182 21.3818 9.28182 23.8519V31.3056C9.28182 33.7756 7.31594 35.7778 4.89091 35.7778C2.46588 35.7778 0.5 33.7756 0.5 31.3056V23.8519C0.5 21.3818 2.46588 19.3796 4.89091 19.3796ZM16.6 0C19.0251 0 20.9909 2.00229 20.9909 4.47222V31.3056C20.9909 33.7756 19.0251 35.7778 16.6 35.7778C14.1749 35.7778 12.2091 33.7756 12.2091 31.3056V4.47222C12.2091 2.00229 14.1749 0 16.6 0ZM28.3091 10.4352C30.7342 10.4352 32.7 12.4375 32.7 14.9074V31.3056C32.7 33.7756 30.7342 35.7778 28.3091 35.7778C25.884 35.7778 23.9182 33.7756 23.9182 31.3056V14.9074C23.9182 12.4375 25.884 10.4352 28.3091 10.4352Z" fill="#0D1821"/>
</svg>
