<svg width="31" height="24" viewBox="0 0 31 24" fill="none" xmlns="http://www.w3.org/2000/svg">
<path d="M14.961 6.34219C15.2938 6.04688 15.4251 5.58281 15.2516 5.17031C15.1438 4.92188 15.0266 4.67813 14.8954 4.44375L14.7501 4.19063C14.6094 3.95625 14.4547 3.72656 14.2907 3.50625C14.0235 3.15 13.5547 3.03281 13.1329 3.17344L11.811 3.60938C11.3094 3.19688 10.7329 2.85938 10.1141 2.62969L9.82817 1.27031C9.73911 0.834375 9.40161 0.4875 8.96099 0.435938C8.65161 0.39375 8.33755 0.375 8.0188 0.375H7.98599C7.66724 0.375 7.35318 0.39375 7.0438 0.43125C6.60318 0.482813 6.26568 0.834375 6.17661 1.26563L5.89068 2.62969C5.26724 2.86406 4.69536 3.19688 4.1938 3.60938L2.86724 3.17813C2.44536 3.0375 1.97661 3.15469 1.70942 3.51094C1.54536 3.73125 1.39068 3.96094 1.24536 4.19531L1.10474 4.44375C0.973487 4.67813 0.8563 4.92188 0.748488 5.175C0.57505 5.58281 0.7063 6.04688 1.03911 6.34688L2.07974 7.275C2.02817 7.58906 2.00005 7.91719 2.00005 8.25C2.00005 8.58281 2.02817 8.91094 2.07974 9.22969L1.03911 10.1578C0.7063 10.4531 0.57505 10.9172 0.748488 11.3297C0.8563 11.5781 0.973487 11.8219 1.10474 12.0609L1.24536 12.3047C1.38599 12.5438 1.54067 12.7688 1.70942 12.9891C1.97661 13.3453 2.44536 13.4625 2.86724 13.3219L4.18911 12.8859C4.69068 13.2984 5.26724 13.6359 5.88599 13.8656L6.17193 15.2297C6.26099 15.6656 6.59849 16.0125 7.03911 16.0641C7.35317 16.1016 7.67192 16.1203 7.99536 16.1203C8.3188 16.1203 8.63755 16.1016 8.95161 16.0641C9.39224 16.0125 9.72974 15.6609 9.8188 15.2297L10.1047 13.8656C10.7282 13.6313 11.3 13.2984 11.8016 12.8859L13.1235 13.3219C13.5454 13.4625 14.0141 13.3453 14.2813 12.9891C14.4454 12.7688 14.6 12.5438 14.7407 12.3047L14.886 12.0516C15.0172 11.8172 15.1344 11.5734 15.2422 11.325C15.4157 10.9172 15.2844 10.4531 14.9516 10.1531L13.911 9.225C13.9626 8.90625 13.9907 8.57812 13.9907 8.24531C13.9907 7.9125 13.9626 7.58438 13.911 7.26563L14.9516 6.3375L14.961 6.34219ZM5.75005 8.25C5.75005 7.65326 5.9871 7.08097 6.40906 6.65901C6.83102 6.23705 7.40331 6 8.00005 6C8.59679 6 9.16908 6.23705 9.59104 6.65901C10.013 7.08097 10.25 7.65326 10.25 8.25C10.25 8.84674 10.013 9.41903 9.59104 9.84099C9.16908 10.2629 8.59679 10.5 8.00005 10.5C7.40331 10.5 6.83102 10.2629 6.40906 9.84099C5.9871 9.41903 5.75005 8.84674 5.75005 8.25ZM24.1579 23.4609C24.4532 23.7938 24.9172 23.925 25.3297 23.7516C25.5782 23.6438 25.8219 23.5266 26.0563 23.3953L26.3094 23.25C26.5438 23.1094 26.7735 22.9547 26.9938 22.7906C27.3501 22.5234 27.4672 22.0547 27.3266 21.6328L26.8907 20.3109C27.3032 19.8094 27.6407 19.2328 27.8704 18.6141L29.2344 18.3281C29.6704 18.2391 30.0172 17.9016 30.0688 17.4609C30.1063 17.1469 30.125 16.8281 30.125 16.5047C30.125 16.1813 30.1063 15.8625 30.0688 15.5484C30.0172 15.1078 29.6657 14.7703 29.2344 14.6813L27.8704 14.3906C27.636 13.7672 27.3032 13.1953 26.8907 12.6938L27.3266 11.3719C27.4672 10.95 27.3501 10.4813 26.9938 10.2141C26.7735 10.05 26.5438 9.89531 26.3094 9.75L26.061 9.60938C25.8266 9.47813 25.5829 9.36094 25.3297 9.25313C24.9219 9.07969 24.4579 9.21094 24.1579 9.54375L23.2297 10.5844C22.911 10.5328 22.5829 10.5047 22.25 10.5047C21.9172 10.5047 21.5891 10.5328 21.2704 10.5844L20.3422 9.54375C20.0469 9.21094 19.5829 9.07969 19.1704 9.25313C18.9219 9.36094 18.6782 9.47813 18.4391 9.60938L18.1954 9.75C17.9563 9.89063 17.7313 10.0453 17.511 10.2141C17.1547 10.4813 17.0375 10.95 17.1782 11.3719L17.6141 12.6938C17.2016 13.1953 16.8641 13.7719 16.6344 14.3906L15.2704 14.6719C14.8344 14.7609 14.4875 15.0984 14.436 15.5391C14.3985 15.8531 14.3797 16.1719 14.3797 16.4953C14.3797 16.8188 14.3985 17.1375 14.436 17.4516C14.4875 17.8922 14.8391 18.2297 15.2704 18.3188L16.6344 18.6047C16.8688 19.2281 17.2016 19.8 17.6141 20.3016L17.1782 21.6234C17.0375 22.0453 17.1547 22.5141 17.511 22.7813C17.7313 22.9453 17.9563 23.1 18.1954 23.2406L18.4485 23.3859C18.6829 23.5172 18.9266 23.6344 19.1751 23.7422C19.5829 23.9156 20.0469 23.7844 20.3469 23.4516L21.2751 22.4109C21.5938 22.4625 21.9219 22.4906 22.2547 22.4906C22.5876 22.4906 22.9157 22.4625 23.2344 22.4109L24.1625 23.4516L24.1579 23.4609ZM22.25 14.25C22.5455 14.25 22.8381 14.3082 23.1111 14.4213C23.3841 14.5343 23.6321 14.7001 23.841 14.909C24.05 15.1179 24.2157 15.366 24.3288 15.639C24.4419 15.9119 24.5 16.2045 24.5 16.5C24.5 16.7955 24.4419 17.0881 24.3288 17.361C24.2157 17.634 24.05 17.8821 23.841 18.091C23.6321 18.2999 23.3841 18.4657 23.1111 18.5787C22.8381 18.6918 22.5455 18.75 22.25 18.75C21.9546 18.75 21.662 18.6918 21.389 18.5787C21.116 18.4657 20.868 18.2999 20.6591 18.091C20.4501 17.8821 20.2844 17.634 20.1713 17.361C20.0582 17.0881 20 16.7955 20 16.5C20 16.2045 20.0582 15.9119 20.1713 15.639C20.2844 15.366 20.4501 15.1179 20.6591 14.909C20.868 14.7001 21.116 14.5343 21.389 14.4213C21.662 14.3082 21.9546 14.25 22.25 14.25Z" fill="#3CACD2"/>
</svg>
