<svg width="51" height="30" viewBox="0 0 51 30" fill="none" xmlns="http://www.w3.org/2000/svg">
<path d="M25.7656 1.65625L18.2031 7.78125C16.9453 8.79688 16.7031 10.625 17.6562 11.9297C18.6641 13.3203 20.625 13.5938 21.9766 12.5391L29.7344 6.50781C30.2812 6.08594 31.0625 6.17969 31.4922 6.72656C31.9219 7.27344 31.8203 8.05469 31.2734 8.48438L29.6406 9.75L43.4844 22.5H46.75C48.8203 22.5 50.5 20.8203 50.5 18.75V8.75C50.5 6.67969 48.8203 5 46.75 5H40.8125H40.5H40.4453L40.1406 4.80469L34.4688 1.17188C33.2734 0.40625 31.875 0 30.4531 0C28.75 0 27.0938 0.585937 25.7656 1.65625ZM27.5469 11.375L23.5078 14.5156C21.0469 16.4375 17.4766 15.9375 15.6328 13.4062C13.8984 11.0234 14.3359 7.69531 16.625 5.84375L23.125 0.585938C22.2188 0.203125 21.2422 0.00781238 20.25 0.00781238C18.7812 -1.19326e-07 17.3516 0.4375 16.125 1.25L10.5 5H4.25C2.17969 5 0.5 6.67969 0.5 8.75V18.75C0.5 20.8203 2.17969 22.5 4.25 22.5H12.7031L19.8438 29.0156C21.375 30.4141 23.7422 30.3047 25.1406 28.7734C25.5703 28.2969 25.8594 27.7422 26.0078 27.1641L27.3359 28.3828C28.8594 29.7812 31.2344 29.6797 32.6328 28.1562C32.9844 27.7734 33.2422 27.3281 33.4062 26.8672C34.9219 27.8828 36.9844 27.6719 38.2578 26.2812C39.6562 24.7578 39.5547 22.3828 38.0312 20.9844L27.5469 11.375Z" fill="#0D1821"/>
</svg>
