<svg width="18" height="24" viewBox="0 0 18 24" fill="none" xmlns="http://www.w3.org/2000/svg">
<path d="M5.25 18C4.8 16.5047 3.86719 15.2297 2.94375 13.9594C2.7 13.6266 2.45625 13.2937 2.22187 12.9562C1.29375 11.6203 0.75 10.0031 0.75 8.25469C0.75 3.69375 4.44375 0 9 0C13.5562 0 17.25 3.69375 17.25 8.25C17.25 9.99844 16.7062 11.6203 15.7781 12.9516C15.5437 13.2891 15.3 13.6219 15.0563 13.9547C14.1281 15.225 13.1953 16.5047 12.75 17.9953H5.25V18ZM9 24C6.92813 24 5.25 22.3219 5.25 20.25V19.5H12.75V20.25C12.75 22.3219 11.0719 24 9 24ZM12.75 8.25C12.75 8.6625 13.0875 9 13.5 9C13.9125 9 14.25 8.6625 14.25 8.25C14.25 5.34844 11.9016 3 9 3C8.5875 3 8.25 3.3375 8.25 3.75C8.25 4.1625 8.5875 4.5 9 4.5C11.0719 4.5 12.75 6.17812 12.75 8.25Z" fill="#3CACD2"/>
</svg>
