<svg width="29" height="28" viewBox="0 0 29 28" fill="none" xmlns="http://www.w3.org/2000/svg">
<path fill-rule="evenodd" clip-rule="evenodd" d="M28.25 14C28.25 21.5939 22.0939 27.75 14.5 27.75C6.90608 27.75 0.75 21.5939 0.75 14C0.75 6.40608 6.90608 0.25 14.5 0.25C22.0939 0.25 28.25 6.40608 28.25 14ZM14.5 8.15625C13.6457 8.15625 12.9531 8.84881 12.9531 9.70313C12.9531 10.2727 12.4914 10.7344 11.9219 10.7344C11.3523 10.7344 10.8906 10.2727 10.8906 9.70313C10.8906 7.70972 12.5067 6.09375 14.5 6.09375C16.4933 6.09375 18.1094 7.70972 18.1094 9.70313C18.1094 10.6805 17.7196 11.569 17.0891 12.218C16.9622 12.3485 16.8412 12.4695 16.7257 12.5849C16.429 12.8813 16.169 13.141 15.9409 13.4342C15.6397 13.8211 15.5313 14.1056 15.5313 14.3438V15.375C15.5313 15.9445 15.0695 16.4063 14.5 16.4063C13.9305 16.4063 13.4688 15.9445 13.4688 15.375V14.3438C13.4688 13.4429 13.8881 12.7136 14.3133 12.1674C14.6277 11.7633 15.0231 11.3687 15.344 11.0485C15.4408 10.9519 15.5307 10.8621 15.6096 10.7808C15.8813 10.5012 16.0469 10.1226 16.0469 9.70313C16.0469 8.84881 15.3543 8.15625 14.5 8.15625ZM14.5 20.875C15.2594 20.875 15.875 20.2594 15.875 19.5C15.875 18.7406 15.2594 18.125 14.5 18.125C13.7406 18.125 13.125 18.7406 13.125 19.5C13.125 20.2594 13.7406 20.875 14.5 20.875Z" fill="#3CACD2"/>
</svg>
