<svg width="26" height="26" viewBox="0 0 26 26" fill="none" xmlns="http://www.w3.org/2000/svg">
<path fill-rule="evenodd" clip-rule="evenodd" d="M6.52611 8.0946C5.77747 8.0946 5.16988 7.49417 5.16988 6.75428C5.16988 6.01439 5.77747 5.41364 6.52611 5.41364C7.27476 5.41364 7.88236 6.01439 7.88236 6.75428C7.88236 7.49417 7.27476 8.0946 6.52611 8.0946ZM25.2057 13.8421L20.7138 9.40286C13.0795 1.8579 14.8657 3.66469 11.905 0.544316C11.65 0.292322 11.3055 0 10.9461 0H2.71101C1.21372 0 -0.00012207 1.50398 -0.00012207 2.98374V11.1212C-0.00012207 11.4777 0.142288 11.8182 0.395905 12.0702C5.71509 17.3258 1.88505 13.5404 13.6979 25.215C14.7572 26.2618 16.4742 26.2618 17.5334 25.215C23.4236 19.3951 22.1161 20.686 25.2057 17.6327C26.2649 16.5858 26.2649 14.8889 25.2057 13.8421Z" fill="#0D1821"/>
</svg>
