<svg width="31" height="31" viewBox="0 0 31 31" fill="none" xmlns="http://www.w3.org/2000/svg">
<path fill-rule="evenodd" clip-rule="evenodd" d="M30.9167 9.78564C30.9167 15.1441 26.555 19.4881 21.1745 19.4881C20.1927 19.4881 17.9573 19.2624 16.8698 18.3599L15.5104 19.7138C14.7112 20.5097 14.927 20.7441 15.2825 21.1301C15.4308 21.2912 15.6036 21.4787 15.737 21.7444C15.737 21.7444 16.8698 23.3239 15.737 24.9033C15.0573 25.8058 13.1541 27.0694 10.9792 24.9033L10.526 25.3546C10.526 25.3546 11.8854 26.934 10.7526 28.5134C10.0729 29.4161 8.26042 30.3186 6.67448 28.7391L5.08855 30.3186C4.00104 31.4016 2.67191 30.7698 2.14329 30.3186L0.783923 28.9647C-0.484838 27.7011 0.25527 26.3323 0.783923 25.8058L12.5652 14.0728C12.5652 14.0728 11.4324 12.2676 11.4324 9.78564C11.4324 4.42716 15.794 0.083252 21.1745 0.083252C26.555 0.083252 30.9167 4.42716 30.9167 9.78564ZM21.1749 13.1703C23.0517 13.1703 24.5732 11.655 24.5732 9.78578C24.5732 7.91654 23.0517 6.40122 21.1749 6.40122C19.2979 6.40122 17.7765 7.91654 17.7765 9.78578C17.7765 11.655 19.2979 13.1703 21.1749 13.1703Z" fill="#0D1821"/>
</svg>
